<svg xmlns="http://www.w3.org/2000/svg" viewBox="0 0 100 100">
  <!-- 头部 -->
  <circle cx="50" cy="50" r="45" fill="#00A0E9"/>
  <circle cx="50" cy="55" r="38" fill="white"/>

  <!-- 眼睛 -->
  <ellipse cx="35" cy="40" rx="8" ry="10" fill="black"/>
  <ellipse cx="65" cy="40" rx="8" ry="10" fill="black"/>
  <circle cx="38" cy="37" r="3" fill="white"/>
  <circle cx="68" cy="37" r="3" fill="white"/>

  <!-- 鼻子 -->
  <circle cx="50" cy="55" r="7" fill="#FF4444"/>
  <circle cx="52" cy="53" r="2" fill="white" opacity="0.5"/>

  <!-- 嘴巴 -->
  <path d="M 35 65 Q 50 75 65 65" stroke="black" stroke-width="2" fill="none"/>

  <!-- 胡须 -->
  <line x1="15" y1="45" x2="30" y2="50" stroke="black" stroke-width="1.5"/>
  <line x1="15" y1="55" x2="30" y2="55" stroke="black" stroke-width="1.5"/>
  <line x1="15" y1="65" x2="30" y2="60" stroke="black" stroke-width="1.5"/>
  <line x1="85" y1="45" x2="70" y2="50" stroke="black" stroke-width="1.5"/>
  <line x1="85" y1="55" x2="70" y2="55" stroke="black" stroke-width="1.5"/>
  <line x1="85" y1="65" x2="70" y2="60" stroke="black" stroke-width="1.5"/>

  <!-- 项圈 -->
  <rect x="25" y="82" width="50" height="8" rx="4" fill="#FF4444"/>

  <!-- 铃铛 -->
  <circle cx="50" cy="92" r="10" fill="#FFD700"/>
  <rect x="42" y="88" width="16" height="3" rx="1" fill="#B8860B"/>
  <circle cx="50" cy="98" r="2" fill="black"/>
</svg>
